<svg xmlns:xlink="http://www.w3.org/1999/xlink" width="24" height="24" viewBox="0 0 128 128" fill="none" xmlns="http://www.w3.org/2000/svg" class="" aria-label="Amp"><path fill-rule="evenodd" clip-rule="evenodd" d="M17.76 39.68C13.2533 39.68 9.59998 43.3334 9.59998 47.8401V89.5467C9.59998 94.0534 13.2533 97.7067 17.76 97.7067H110.24C114.747 97.7067 118.4 94.0534 118.4 89.5467V47.8401C118.4 43.3334 114.747 39.68 110.24 39.68H17.76ZM22.2933 46.9334C19.2889 46.9334 16.8533 49.369 16.8533 52.3734V85.0134C16.8533 88.0178 19.2889 90.4534 22.2933 90.4534H105.707C108.711 90.4534 111.147 88.0178 111.147 85.0134V52.3734C111.147 49.369 108.711 46.9334 105.707 46.9334H22.2933Z" fill="#FFFFFF"></path><path fill-rule="evenodd" clip-rule="evenodd" d="M40.841 46.1686C40.841 46.1686 40.842 46.1679 38.6134 43.3067C36.3848 40.4456 36.386 40.4446 36.386 40.4446L36.3918 40.4401L36.4039 40.4307L36.4434 40.4003L36.5818 40.2947C36.7 40.2051 36.8695 40.0778 37.0862 39.9183C37.5195 39.5994 38.1429 39.1507 38.9237 38.6154C40.482 37.5472 42.6851 36.1221 45.2699 34.6929C50.2998 31.9117 57.326 28.8 64 28.8C70.6741 28.8 77.7002 31.9117 82.7302 34.6929C85.315 36.1221 87.5181 37.5472 89.0764 38.6154C89.8572 39.1507 90.4806 39.5994 90.9139 39.9183C91.1306 40.0778 91.3001 40.2051 91.4183 40.2947L91.5567 40.4003L91.5962 40.4307L91.6083 40.4401L91.6124 40.4434C91.6124 40.4434 91.6153 40.4456 89.3867 43.3067C87.1581 46.1679 87.1591 46.1686 87.1591 46.1686L87.1359 46.1507L87.0358 46.0744C86.9438 46.0046 86.8021 45.8981 86.6146 45.7601C86.2394 45.484 85.6823 45.0827 84.9752 44.598C83.5576 43.6262 81.555 42.3314 79.2205 41.0405C74.4118 38.3817 68.7446 36.0534 64 36.0534C59.2555 36.0534 53.5883 38.3817 48.7796 41.0405C46.445 42.3314 44.4425 43.6262 43.0249 44.598C42.3178 45.0827 41.7607 45.484 41.3855 45.7601C41.198 45.8981 41.0563 46.0046 40.9643 46.0744L40.8642 46.1507L40.841 46.1686Z" fill="#FFFFFF"></path><path fill-rule="evenodd" clip-rule="evenodd" d="M17.76 39.68C13.2533 39.68 9.59998 43.3334 9.59998 47.8401V89.5467C9.59998 94.0534 13.2533 97.7067 17.76 97.7067H110.24C114.747 97.7067 118.4 94.0534 118.4 89.5467V47.8401C118.4 43.3334 114.747 39.68 110.24 39.68H17.76ZM22.2933 46.9334C19.2889 46.9334 16.8533 49.369 16.8533 52.3734V85.0134C16.8533 88.0178 19.2889 90.4534 22.2933 90.4534H105.707C108.711 90.4534 111.147 88.0178 111.147 85.0134V52.3734C111.147 49.369 108.711 46.9334 105.707 46.9334H22.2933Z" fill="#FFFFFF"></path><path fill-rule="evenodd" clip-rule="evenodd" d="M40.841 46.1686C40.841 46.1686 40.842 46.1679 38.6134 43.3067C36.3848 40.4456 36.386 40.4446 36.386 40.4446L36.3918 40.4401L36.4039 40.4307L36.4434 40.4003L36.5818 40.2947C36.7 40.2051 36.8695 40.0778 37.0862 39.9183C37.5195 39.5994 38.1429 39.1507 38.9237 38.6154C40.482 37.5472 42.6851 36.1221 45.2699 34.6929C50.2998 31.9117 57.326 28.8 64 28.8C70.6741 28.8 77.7002 31.9117 82.7302 34.6929C85.315 36.1221 87.5181 37.5472 89.0764 38.6154C89.8572 39.1507 90.4806 39.5994 90.9139 39.9183C91.1306 40.0778 91.3001 40.2051 91.4183 40.2947L91.5567 40.4003L91.5962 40.4307L91.6083 40.4401L91.6124 40.4434C91.6124 40.4434 91.6153 40.4456 89.3867 43.3067C87.1581 46.1679 87.1591 46.1686 87.1591 46.1686L87.1359 46.1507L87.0358 46.0744C86.9438 46.0046 86.8021 45.8981 86.6146 45.7601C86.2394 45.484 85.6823 45.0827 84.9752 44.598C83.5576 43.6262 81.555 42.3314 79.2205 41.0405C74.4118 38.3817 68.7446 36.0534 64 36.0534C59.2555 36.0534 53.5883 38.3817 48.7796 41.0405C46.445 42.3314 44.4425 43.6262 43.0249 44.598C42.3178 45.0827 41.7607 45.484 41.3855 45.7601C41.198 45.8981 41.0563 46.0046 40.9643 46.0744L40.8642 46.1507L40.841 46.1686Z" fill="#FFFFFF"></path><path fill-rule="evenodd" clip-rule="evenodd" d="M35.2 67.2C31.6654 67.2 28.8 70.0653 28.8 73.6V92.8H99.2V73.6C99.2 70.0653 96.3346 67.2 92.8 67.2H35.2ZM44.8 83.2C47.451 83.2 49.6 81.051 49.6 78.4C49.6 75.749 47.451 73.6 44.8 73.6C42.149 73.6 40 75.749 40 78.4C40 81.051 42.149 83.2 44.8 83.2ZM68.8 78.4C68.8 81.051 66.651 83.2 64 83.2C61.349 83.2 59.2 81.051 59.2 78.4C59.2 75.749 61.349 73.6 64 73.6C66.651 73.6 68.8 75.749 68.8 78.4ZM83.2 83.2C85.851 83.2 88 81.051 88 78.4C88 75.749 85.851 73.6 83.2 73.6C80.549 73.6 78.4 75.749 78.4 78.4C78.4 81.051 80.549 83.2 83.2 83.2Z" fill="#FFFFFF"></path></svg>