<svg xmlns:xlink="http://www.w3.org/1999/xlink" width="24" height="24" viewBox="0 0 56 56" fill="none" xmlns="http://www.w3.org/2000/svg" class="" aria-label="Pedal"><g clip-path="url(#clip0_4256_2831)" fill="none"><path fill-rule="evenodd" clip-rule="evenodd" d="M13.3489 11.5095C13.3489 8.24585 15.9946 5.60016 19.2582 5.60016H36.4489C39.7126 5.60016 42.3582 8.24585 42.3582 11.5095V45.8909C42.3582 49.1545 39.7126 51.8002 36.4489 51.8002H19.2582C15.9946 51.8002 13.3489 49.1545 13.3489 45.8909V11.5095ZM19.2582 8.82341C17.7748 8.82341 16.5722 10.026 16.5722 11.5095V45.8909C16.5722 47.3744 17.7748 48.5769 19.2582 48.5769H36.4489C37.9325 48.5769 39.135 47.3744 39.135 45.8909V11.5095C39.135 10.026 37.9325 8.82341 36.4489 8.82341H19.2582Z" fill="#FFFFFF"></path><path fill-rule="evenodd" clip-rule="evenodd" d="M13.3489 24.4024C13.3489 22.3256 15.0325 20.6419 17.1094 20.6419H38.5978C40.6746 20.6419 42.3582 22.3256 42.3582 24.4024V45.8908C42.3582 49.1544 39.7126 51.8001 36.4489 51.8001H19.2582C15.9946 51.8001 13.3489 49.1544 13.3489 45.8908V24.4024ZM17.1094 23.8652C16.8127 23.8652 16.5722 24.1057 16.5722 24.4024V45.8908C16.5722 47.3743 17.7748 48.5768 19.2582 48.5768H36.4489C37.9325 48.5768 39.135 47.3743 39.135 45.8908V24.4024C39.135 24.1057 38.8945 23.8652 38.5978 23.8652H17.1094Z" fill="#FFFFFF"></path><path fill-rule="evenodd" clip-rule="evenodd" d="M19.7954 35.1467C19.7954 34.2566 20.5169 33.535 21.407 33.535H34.3C35.1901 33.535 35.9117 34.2566 35.9117 35.1467V43.742C35.9117 44.6321 35.1901 45.3536 34.3 45.3536H21.407C20.5169 45.3536 19.7954 44.6321 19.7954 43.742V35.1467Z" fill="#FFFFFF"></path><path fill-rule="evenodd" clip-rule="evenodd" d="M39.1349 26.5513C39.1349 25.6613 39.8565 24.9397 40.7466 24.9397H42.8954C43.7854 24.9397 44.507 25.6613 44.507 26.5513V30.849C44.507 31.739 43.7854 32.4606 42.8954 32.4606H40.7466C39.8565 32.4606 39.1349 31.739 39.1349 30.849V26.5513Z" fill="#FFFFFF"></path><path fill-rule="evenodd" clip-rule="evenodd" d="M11.2 26.5513C11.2 25.6613 11.9216 24.9397 12.8117 24.9397H14.9605C15.8506 24.9397 16.5721 25.6613 16.5721 26.5513V30.849C16.5721 31.739 15.8506 32.4606 14.9605 32.4606H12.8117C11.9216 32.4606 11.2 31.739 11.2 30.849V26.5513Z" fill="#FFFFFF"></path><path fill-rule="evenodd" clip-rule="evenodd" d="M33.2256 10.9722C31.1488 10.9722 29.4652 12.6558 29.4652 14.7326C29.4652 16.8095 31.1488 18.4931 33.2256 18.4931C35.3025 18.4931 36.9861 16.8095 36.9861 14.7326C36.9861 12.6558 35.3025 10.9722 33.2256 10.9722Z" fill="#FFFFFF"></path><path fill-rule="evenodd" clip-rule="evenodd" d="M22.4814 10.9722C20.4046 10.9722 18.7209 12.6558 18.7209 14.7326C18.7209 16.8095 20.4046 18.4931 22.4814 18.4931C24.5583 18.4931 26.2419 16.8095 26.2419 14.7326C26.2419 12.6558 24.5583 10.9722 22.4814 10.9722Z" fill="#FFFFFF"></path></g><defs><clipPath id="clip0_4256_2831"><rect width="56" height="56" fill="white"></rect></clipPath></defs></svg>