<svg width="247" height="30" viewBox="0 0 247 30" fill="none" xmlns="http://www.w3.org/2000/svg">
<path d="M0 5.03093V0.295937H31.0974V5.03093H20.3356V21.9416H10.7618V5.03093H0Z" fill="#FF0000"/>
<path d="M47.6392 23.2483C44.8207 23.2483 36.0971 21.9451 33.9075 21.3603C31.7295 20.7684 32.3436 22.9774 31.0974 21.9416C31.109 23.2874 29.8511 20.9058 31.0974 21.9416L33.9075 21.3603C33.9075 27.933 37.7335 29.0191 40.7209 23.2483C41.1402 23.5725 44.8905 21.8385 45.6127 22.0217C46.3348 22.2049 47.5635 20.2159 48.4953 20.2159C49.3921 20.2159 43.1784 17.4074 43.8656 17.2172C44.5528 17.0199 45.0885 16.7486 45.4729 16.4034C45.8572 16.0581 46.0436 15.6635 46.0319 15.2196C46.0436 14.7828 45.8223 14.3952 45.3681 14.057C44.9255 13.7188 46.8356 9.73421 46.0319 9.54396C45.2283 9.35372 41.1328 8.08638 40.0845 8.08638L39.0088 6.76427L37.0871 8.92038H40.7209C41.6876 8.92038 42.5379 8.82526 43.2716 8.63501C44.017 8.44477 44.5936 8.18054 45.0012 7.84233C45.4205 7.50411 45.6243 7.11658 45.6127 6.67972C45.6243 6.25695 45.4554 5.88351 45.106 5.55939C44.7566 5.23526 44.2674 4.9816 43.6385 4.79841C43.0212 4.61521 42.3049 4.52361 41.4896 4.52361C40.6045 4.52361 39.8125 4.61873 39.1137 4.80897C38.4265 4.99922 37.8849 5.26345 37.4889 5.60166C37.0929 5.93988 36.8891 6.32741 36.8774 6.76427H27.5832C27.5948 5.4396 28.1946 4.26995 29.3826 3.25531C30.5823 2.24066 32.2245 1.44445 34.3093 0.866672C36.3941 0.288891 38.7875 0 41.4896 0C44.1335 0 46.4687 0.271275 48.4953 0.813826C50.5335 1.35638 52.1233 2.10327 53.2647 3.05449C54.4178 3.99867 54.9885 5.08025 54.9768 6.29923C55.0001 7.51116 54.3129 8.50466 52.9153 9.27973C51.5293 10.0548 49.7706 10.5128 47.6392 10.6537V10.8228C50.5277 11.0131 52.6998 11.5486 54.1557 12.4293C55.6116 13.3031 56.3279 14.4023 56.3046 15.7269C56.3162 16.9952 55.6873 18.1191 54.4178 19.0985C53.1599 20.0779 51.407 20.8459 49.1592 21.4026C46.9229 21.9592 50.5626 23.2483 47.6392 23.2483Z" fill="#FF0000"/>
<path d="M53.1922 21.9416V0.295937H62.9058V9.04721H63.3949L74.1567 0.295937H85.4775L73.388 9.93502L71.3419 19.0985L74.1567 21.9416L66.1203 13.8245L62.9058 16.3611V21.9416H53.1922Z" fill="#FF0000"/>
<path d="M97.9305 21.9416V0.295937H113.374C116.03 0.295937 118.353 0.613012 120.345 1.24716C122.337 1.88131 123.886 2.77265 124.992 3.92116C126.099 5.06968 126.652 6.41197 126.652 7.94802C126.652 9.49816 126.081 10.8405 124.94 11.9749C123.81 13.1093 122.22 13.983 120.17 14.596C118.132 15.209 122.422 11.1188 119.697 11.1188L115.397 9.93502L103.801 10.9497H111.068C112.21 10.9497 113.182 10.8299 113.986 10.5903C114.801 10.3437 115.424 9.99492 115.855 9.54396C116.298 9.09301 116.519 8.56103 116.519 7.94802C116.519 7.32796 116.298 6.7995 115.855 6.36264C115.424 5.91874 114.801 5.58052 113.986 5.348C113.182 5.10843 112.21 4.98865 111.068 4.98865H107.644V21.9416H97.9305Z" fill="#FF0000"/>
<path d="M125.788 21.9416V0.295937H135.502V17.2066H149.967V21.9416H125.788Z" fill="#FF0000"/>
<path d="M155.808 21.9416H145.326L157.136 0.295937H170.414L182.178 21.9416H171.741L163.915 6.25695H163.635L155.808 21.9416Z" fill="#FF0000"/>
<path d="M159.396 0.295937H170.228L177.216 9.08949H177.496L184.484 0.295937H195.315L182.178 15.1351V21.9416H172.534V15.1351L159.396 0.295937Z" fill="#FF0000"/>
<path d="M191.594 21.9416V0.295937H217.381L217.279 5.27402L201.308 5.03093V8.75128H216.053L212 12.5L201.308 13.4863V17.2066H209.887L211.557 21.9416H191.594Z" fill="#FF0000"/>
<path d="M217.381 0.295937L217.279 5.27402C229.5 5 243.158 12.6372 244.288 11.5732C245.429 10.5093 246 9.20223 246 7.65208C246 6.11603 245.447 4.79841 244.34 3.69921C243.234 2.60002 241.685 1.75801 239.693 1.17318C237.702 0.588351 235.378 0.295937 232.722 0.295937L217.381 0.295937Z" fill="#FF0000"/>
<path d="M0 12.9772V8.29278H31.0737V12.9772H20.3201V29.7072H10.7536V12.9772H0Z" fill="#0000FF"/>
<path d="M41.3883 30C38.5718 30 36.0696 29.7107 33.8817 29.1321C31.7054 28.5466 29.9946 27.7414 28.7493 26.7167C27.504 25.692 26.8756 24.5139 26.8639 23.1825H36.6399C36.6515 23.5938 36.861 23.9632 37.2684 24.2909C37.6873 24.6115 38.2576 24.8625 38.9792 25.0437C39.7007 25.225 40.527 25.3156 41.4581 25.3156C42.3542 25.3156 43.1456 25.2215 43.8323 25.0333C44.5189 24.8381 45.0543 24.5697 45.4383 24.2281C45.8224 23.8866 46.0086 23.4962 45.9969 23.057C46.0086 22.6248 45.7875 22.2414 45.3336 21.9068C44.8913 21.5722 44.2687 21.3108 43.4657 21.1226C42.6626 20.9344 41.7374 20.8403 40.69 20.8403H37.0589V16.8251H40.69C41.6559 16.8251 42.5055 16.731 43.2387 16.5428C43.9836 16.3546 44.5596 16.0932 44.967 15.7586C45.3859 15.424 45.5896 15.0406 45.578 14.6084C45.5896 14.1901 45.4209 13.8207 45.0717 13.5C44.7226 13.1793 44.2338 12.9284 43.6053 12.7471C42.9885 12.5659 42.2727 12.4753 41.4581 12.4753C40.5736 12.4753 39.7822 12.5694 39.0839 12.7576C38.3973 12.9458 37.8561 13.2072 37.4604 13.5418C37.0647 13.8764 36.861 14.2598 36.8494 14.692H27.5622C27.5738 13.3815 28.1732 12.2243 29.3603 11.2205C30.559 10.2167 32.2 9.42902 34.2832 8.85741C36.3664 8.2858 38.758 8 41.4581 8C44.0999 8 46.4334 8.26838 48.4584 8.80513C50.4951 9.34189 52.0837 10.0808 53.2242 11.0219C54.3764 11.956 54.9466 13.026 54.935 14.2319C54.9583 15.4309 54.2716 16.4138 52.8751 17.1806C51.4901 17.9474 49.7328 18.4005 47.603 18.5399V18.7072C50.4892 18.8954 52.6597 19.4252 54.1145 20.2966C55.5693 21.161 56.285 22.2484 56.2617 23.5589C56.2734 24.8137 55.6449 25.9255 54.3764 26.8945C53.1195 27.8634 51.3679 28.6233 49.1218 29.174C46.8873 29.7247 44.3094 30 41.3883 30Z" fill="#0000FF"/>
<path d="M53.1517 29.7072V8.29278H62.8579V16.9506H63.3467L74.1003 8.29278H85.4125L73.3322 17.8289L85.6918 29.7072H74.1003L66.07 21.6768L62.8579 24.1863V29.7072H53.1517Z" fill="#0000FF"/>
<path d="M97.856 29.7072V8.29278H113.288C115.942 8.29278 118.263 8.60646 120.253 9.23384C122.244 9.86122 123.791 10.743 124.897 11.8793C126.003 13.0155 126.556 14.3435 126.556 15.8631C126.556 17.3967 125.985 18.7247 124.845 19.847C123.716 20.9693 122.127 21.8336 120.079 22.4401C118.042 23.0466 115.662 23.3498 112.939 23.3498H103.722V18.8327H110.984C112.124 18.8327 113.096 18.7142 113.899 18.4772C114.714 18.2332 115.336 17.8881 115.767 17.442C116.209 16.9959 116.43 16.4696 116.43 15.8631C116.43 15.2497 116.209 14.7269 115.767 14.2947C115.336 13.8555 114.714 13.5209 113.899 13.2909C113.096 13.0539 112.124 12.9354 110.984 12.9354H107.562V29.7072H97.856Z" fill="#0000FF"/>
<path d="M125.692 29.7072V8.29278H135.399V25.0228H149.853V29.7072H125.692Z" fill="#0000FF"/>
<path d="M155.69 29.7072H145.216L157.017 8.29278H170.284L182.039 29.7072H171.611L163.79 14.1901H163.511L155.69 29.7072ZM153.735 21.2586H173.426V25.6084H153.735V21.2586Z" fill="#0000FF"/>
<path d="M159.275 8.29278H170.099L177.081 16.9924H177.361L184.344 8.29278H195.167L182.039 22.9734V29.7072H172.403V22.9734L159.275 8.29278Z" fill="#0000FF"/>
<path d="M191.449 29.7072V8.29278H217.215L217.113 12.9354H201.155V16.6578H215.889V21.3422H201.155V25.0228H217.146V29.7072H191.449Z" fill="#0000FF"/>
<path d="M217.113 29.7072V8.29278H232.545C235.199 8.29278 237.521 8.58207 239.511 9.16065C241.501 9.73923 243.049 10.5722 244.154 11.6597C245.26 12.7471 245.813 14.0507 245.813 15.5703C245.813 17.1039 245.243 18.397 244.102 19.4496C242.973 20.5022 241.385 21.2969 239.336 21.8337C237.3 22.3704 234.92 22.6388 232.196 22.6388H222.979V18.1217H230.241C231.382 18.1217 232.353 18.038 233.156 17.8707C233.971 17.6965 234.594 17.4211 235.024 17.0447C235.467 16.6683 235.688 16.1768 235.688 15.5703C235.688 14.9569 235.467 14.4585 235.024 14.0751C234.594 13.6847 233.971 13.3989 233.156 13.2177C232.353 13.0295 231.382 12.9354 230.241 12.9354H226.82V29.7072H217.113ZM238.062 19.8783L247 29.7072H236.456L227.727 19.8783H238.062Z" fill="#0000FF"/>
<path d="M0 8.97719V4.29278H31.0737V8.97719H20.3201V25.7072H10.7536V8.97719H0Z" fill="#FFFF00"/>
<path d="M41.3883 26C38.5718 26 36.0696 25.7107 33.8817 25.1321C31.7054 24.5466 29.9946 23.7414 28.7493 22.7167C27.504 21.692 26.8756 20.5139 26.8639 19.1825H36.6399C36.6515 19.5938 36.861 19.9632 37.2684 20.2909C37.6873 20.6115 38.2576 20.8625 38.9792 21.0437C39.7007 21.225 40.527 21.3156 41.4581 21.3156C42.3542 21.3156 43.1456 21.2215 43.8323 21.0333C44.5189 20.8381 45.0543 20.5697 45.4383 20.2281C45.8224 19.8866 46.0086 19.4962 45.9969 19.057C46.0086 18.6248 45.7875 18.2414 45.3336 17.9068C44.8913 17.5722 44.2687 17.3108 43.4657 17.1226C42.6626 16.9344 41.7374 16.8403 40.69 16.8403H37.0589V12.8251H40.69C41.6559 12.8251 42.5055 12.731 43.2387 12.5428C43.9836 12.3546 44.5596 12.0932 44.967 11.7586C45.3859 11.424 45.5896 11.0406 45.578 10.6084C45.5896 10.1901 45.4209 9.82066 45.0717 9.5C44.7226 9.17934 44.2338 8.92839 43.6053 8.74715C42.9885 8.56591 42.2727 8.47528 41.4581 8.47528C40.5736 8.47528 39.7822 8.56939 39.0839 8.7576C38.3973 8.94582 37.8561 9.20722 37.4604 9.54183C37.0647 9.87643 36.861 10.2598 36.8494 10.692H27.5622C27.5738 9.3815 28.1732 8.22433 29.3603 7.22053C30.559 6.21673 32.2 5.42902 34.2832 4.85741C36.3664 4.2858 38.758 4 41.4581 4C44.0999 4 46.4334 4.26838 48.4584 4.80513C50.4951 5.34189 52.0837 6.0808 53.2242 7.02186C54.3764 7.95596 54.9466 9.02598 54.935 10.2319C54.9583 11.4309 54.2716 12.4138 52.8751 13.1806C51.4901 13.9474 49.7328 14.4005 47.603 14.5399V14.7072C50.4892 14.8954 52.6597 15.4252 54.1145 16.2966C55.5693 17.161 56.285 18.2484 56.2617 19.5589C56.2734 20.8137 55.6449 21.9255 54.3764 22.8945C53.1195 23.8634 51.3679 24.6233 49.1218 25.174C46.8873 25.7247 44.3094 26 41.3883 26Z" fill="#FFFF00"/>
<path d="M53.1517 25.7072V4.29278H62.8579V12.9506H63.3467L74.1003 4.29278H85.4125L73.3322 13.8289L85.6918 25.7072H74.1003L66.07 17.6768L62.8579 20.1863V25.7072H53.1517Z" fill="#FFFF00"/>
<path d="M97.856 25.7072V4.29278H113.288C115.942 4.29278 118.263 4.60646 120.253 5.23384C122.244 5.86122 123.791 6.74303 124.897 7.87928C126.003 9.01553 126.556 10.3435 126.556 11.8631C126.556 13.3967 125.985 14.7247 124.845 15.847C123.716 16.9693 122.127 17.8336 120.079 18.4401C118.042 19.0466 115.662 19.3498 112.939 19.3498H103.722V14.8327H110.984C112.124 14.8327 113.096 14.7142 113.899 14.4772C114.714 14.2332 115.336 13.8881 115.767 13.442C116.209 12.9959 116.43 12.4696 116.43 11.8631C116.43 11.2497 116.209 10.7269 115.767 10.2947C115.336 9.85551 114.714 9.52091 113.899 9.29087C113.096 9.05387 112.124 8.93536 110.984 8.93536H107.562V25.7072H97.856Z" fill="#FFFF00"/>
<path d="M125.692 25.7072V4.29278H135.399V21.0228H149.853V25.7072H125.692Z" fill="#FFFF00"/>
<path d="M155.69 25.7072H145.216L157.017 4.29278H170.284L182.039 25.7072H171.611L163.79 10.1901H163.511L155.69 25.7072ZM159.948 17.2586H167.353L169.545 21.6084H157.756L159.948 17.2586Z" fill="#FFFF00"/>
<path d="M159.275 4.29278H170.099L177.081 12.9924H177.361L184.344 4.29278H195.167L182.039 18.9734V25.7072H172.403V18.9734L159.275 4.29278Z" fill="#FFFF00"/>
<path d="M191.449 25.7072V4.29278H218V8.97719H201.155V12.6578H215.889V17.3422H201.155V21.0228H218V25.7072H191.449Z" fill="#FFFF00"/>
<path d="M217.113 25.7072V4.29278H232.545C235.199 4.29278 237.521 4.58207 239.511 5.16065C241.501 5.73923 243.049 6.57224 244.154 7.6597C245.26 8.74715 245.813 10.0507 245.813 11.5703C245.813 13.1039 245.243 14.397 244.102 15.4496C242.973 16.5022 241.385 17.2969 239.336 17.8337C237.3 18.3704 232.965 18.6388 230.241 18.6388H226.82V14.1217H230.241C231.382 14.1217 232.353 14.038 233.156 13.8707C233.971 13.6965 234.594 13.4211 235.024 13.0447C235.467 12.6683 235.688 12.1768 235.688 11.5703C235.688 10.9569 235.467 10.4585 235.024 10.0751C234.594 9.68473 233.971 9.39892 233.156 9.21768C232.353 9.02947 231.382 8.93536 230.241 8.93536H226.82V14.1217V25.7072H217.113ZM239.336 17.8337L247 25.7072H236.456L230.241 18.6388L239.336 17.8337Z" fill="#FFFF00"/>
</svg>
